<?xml version="1.0" encoding="UTF-8"?>
<svg version="1.1" xmlns="http://www.w3.org/2000/svg" width="640" height="640">
<path d="M0 0 C211.2 0 422.4 0 640 0 C640 211.2 640 422.4 640 640 C428.8 640 217.6 640 0 640 C0 428.8 0 217.6 0 0 Z " fill="#FEFEFE" transform="translate(0,0)"/>
<path d="M0 0 C4.0445078 0.38889498 5.55172977 1.29678621 8.25 4.3125 C8.875 7.25 8.875 7.25 8.25 10.3125 C4.41154431 14.87392695 -0.01119158 17.38176477 -5.1875 20.125 C-6.78818492 20.99270694 -8.38843983 21.86120757 -9.98828125 22.73046875 C-10.78443848 23.16020996 -11.5805957 23.58995117 -12.40087891 24.03271484 C-15.92129972 25.9506161 -19.3999809 27.93882894 -22.875 29.9375 C-24.01195313 30.58976562 -25.14890625 31.24203125 -26.3203125 31.9140625 C-27.12210938 32.37554687 -27.92390625 32.83703125 -28.75 33.3125 C-28.75 33.9725 -28.75 34.6325 -28.75 35.3125 C-27.80253906 35.8386792 -27.80253906 35.8386792 -26.8359375 36.37548828 C-13.08297865 44.02235139 0.58369051 51.79340039 14.16015625 59.75 C20.46570465 63.44463337 26.79297534 67.1009724 33.125 70.75 C34.74305542 71.68271729 34.74305542 71.68271729 36.39379883 72.63427734 C39.67892251 74.52749899 42.96439728 76.42010983 46.25 78.3125 C58.89303109 85.59443571 71.53124536 92.88309242 84.125 100.25 C93.9340047 105.9857189 103.78925141 111.63827285 113.66064453 117.265625 C121.78934919 121.90041397 129.89938119 126.56627477 138 131.25 C147.379434 136.67173598 156.78707388 142.03784783 166.25 147.3125 C166.22905273 146.54583008 166.20810547 145.77916016 166.18652344 144.98925781 C166.10334842 141.5138054 166.05133425 138.03856237 166 134.5625 C165.96648437 133.3559375 165.93296875 132.149375 165.8984375 130.90625 C165.88554687 129.74609375 165.87265625 128.5859375 165.859375 127.390625 C165.83842773 126.32231445 165.81748047 125.25400391 165.79589844 124.15332031 C166.36335842 120.60333946 167.38010422 119.42253 170.25 117.3125 C173.65091922 117.37216525 176.11271991 117.5182533 178.9465332 119.49731445 C180.82897986 122.11877745 180.58980413 124.09255115 180.54296875 127.29296875 C180.53330078 128.45634766 180.52363281 129.61972656 180.51367188 130.81835938 C180.48853516 132.03330078 180.46339844 133.24824219 180.4375 134.5 C180.42396484 135.72654297 180.41042969 136.95308594 180.39648438 138.21679688 C180.36108741 141.24913664 180.3117076 144.28059996 180.25 147.3125 C199.12221058 136.93318772 199.12221058 136.93318772 217.765625 126.15161133 C224.04194903 122.42201482 230.36140756 118.76946525 236.6875 115.125 C237.79343506 114.48763916 238.89937012 113.85027832 240.03881836 113.19360352 C243.44224003 111.23270469 246.8460763 109.27252722 250.25 107.3125 C254.62550788 104.79254706 259.00056134 102.27180859 263.375 99.75 C264.45338135 99.12834961 265.5317627 98.50669922 266.64282227 97.86621094 C273.81758802 93.72627995 280.97503343 89.5575821 288.125 85.375 C296.80262662 80.29974631 305.51621513 75.29019668 314.25 70.3125 C323.06398114 65.28808457 331.86190421 60.23788032 340.625 55.125 C342.07060303 54.28171143 342.07060303 54.28171143 343.54541016 53.42138672 C348.56459297 50.48682145 353.5699657 47.53046959 358.5625 44.55078125 C359.58037598 43.94451904 360.59825195 43.33825684 361.64697266 42.71362305 C363.59175487 41.55373695 365.53424873 40.39000293 367.47412109 39.22192383 C368.33602051 38.70782959 369.19791992 38.19373535 370.0859375 37.6640625 C370.84438965 37.20854004 371.6028418 36.75301758 372.38427734 36.28369141 C374.25 35.3125 374.25 35.3125 376.25 35.3125 C376.25 34.6525 376.25 33.9925 376.25 33.3125 C375.55777344 33.05509033 374.86554688 32.79768066 374.15234375 32.5324707 C368.93518262 30.33949004 364.09482193 27.4000357 359.18457031 24.6003418 C357.26039351 23.50591161 355.32965549 22.42374134 353.3984375 21.34179688 C352.16103457 20.63876618 350.92404152 19.93501345 349.6875 19.23046875 C348.57246094 18.59906982 347.45742188 17.9676709 346.30859375 17.31713867 C343.15522541 15.25038361 340.72566184 13.15231311 338.25 10.3125 C337.5670331 6.59412465 337.73676569 5.06261169 339.875 1.9375 C342.95160663 -0.16754664 344.56489859 -0.00008311 348.25 0.3125 C350.97216797 1.43896484 350.97216797 1.43896484 353.7421875 3.0234375 C355.28374512 3.89464233 355.28374512 3.89464233 356.85644531 4.78344727 C357.93506836 5.41178467 359.01369141 6.04012207 360.125 6.6875 C361.23456055 7.32292725 362.34412109 7.95835449 363.48730469 8.61303711 C369.87023475 12.28947513 376.22416681 16.01818226 382.5 19.875 C383.12374512 20.2551123 383.74749023 20.63522461 384.39013672 21.02685547 C391.66839711 25.60901271 395.48694163 30.78638325 399.25 38.3125 C399.38575757 40.89694967 399.46276983 43.45296634 399.48828125 46.0390625 C399.496353 46.81953949 399.50442474 47.60001648 399.51274109 48.40414429 C399.52659887 50.06693295 399.53731342 51.72975026 399.54516602 53.39257812 C399.55655187 55.06421463 399.57678388 56.73581881 399.60668945 58.40722656 C399.96069772 78.20795712 396.62374956 95.2117484 382.51171875 110.046875 C381.76535156 110.79453125 381.01898437 111.5421875 380.25 112.3125 C379.65832031 112.91578125 379.06664062 113.5190625 378.45703125 114.140625 C372.38578968 119.87680909 365.05150806 123.98694122 357.93237305 128.27856445 C356.34789106 129.25233912 354.79743913 130.28087391 353.25 131.3125 C349.6727467 131.76917063 347.91541695 131.75027431 344.875 129.75 C343.25 127.3125 343.25 127.3125 342.4375 124 C344.04345888 116.71141741 351.66040813 113.68081061 357.59716797 109.86083984 C358.79317005 109.09830522 359.99381271 108.34298382 361.19970703 107.59619141 C366.91122791 104.03034561 371.9261779 100.28022242 375.875 94.75 C376.69871094 93.63431641 376.69871094 93.63431641 377.5390625 92.49609375 C382.91866616 82.48610064 383.79347184 73.29344161 383.5 62.0625 C383.4798718 60.72007921 383.46163237 59.37762874 383.4453125 58.03515625 C383.3986698 54.79348838 383.33323132 51.55339944 383.25 48.3125 C382.60901367 48.68310547 381.96802734 49.05371094 381.30761719 49.43554688 C378.20548626 51.22857197 375.1028352 53.02069391 372 54.8125 C371.42454437 55.14485657 370.84908875 55.47721313 370.25619507 55.81964111 C363.45249671 59.74816583 356.64261977 63.66539639 349.81640625 67.5546875 C349.21155396 67.89937073 348.60670166 68.24405396 347.98352051 68.59918213 C345.57995779 69.96869887 343.17633653 71.33811144 340.77215576 72.70654297 C332.68146542 77.31369903 324.65896708 82.0062571 316.7421875 86.90625 C314.25 88.3125 314.25 88.3125 312.25 88.3125 C312.27618408 89.47297852 312.30236816 90.63345703 312.3293457 91.82910156 C312.4198961 96.13766168 312.4772665 100.44613787 312.5246582 104.75537109 C312.54979147 106.61977281 312.58390383 108.4840761 312.62719727 110.34814453 C312.68790352 113.02921831 312.71622058 115.70898902 312.73828125 118.390625 C312.76408768 119.22305725 312.7898941 120.0554895 312.81648254 120.91314697 C312.81928534 126.70574702 312.81928534 126.70574702 309.87963867 129.83886719 C306.92436945 131.4949813 305.56735953 131.99298401 302.25 131.3125 C300.12207031 129.71582031 300.12207031 129.71582031 298.25 127.3125 C297.79589844 124.10449219 297.79589844 124.10449219 297.859375 120.359375 C297.86503479 119.69915344 297.87069458 119.03893188 297.87652588 118.35870361 C297.8988377 116.25921737 297.94901686 114.1614663 298 112.0625 C298.02007206 110.6354414 298.03832161 109.20835592 298.0546875 107.78125 C298.09868307 104.29110707 298.16767124 100.80197301 298.25 97.3125 C297.59854004 97.68834229 296.94708008 98.06418457 296.27587891 98.45141602 C239.75 131.0625 239.75 131.0625 236.49487305 132.94042969 C234.34526366 134.18060761 232.19568642 135.42084127 230.04614258 136.66113281 C224.97690788 139.5860023 219.90735064 142.51030833 214.8366394 145.43261719 C212.44573403 146.81056938 210.05501328 148.18884172 207.66430664 149.56713867 C205.98016037 150.53790982 204.29574769 151.50821874 202.61132812 152.47851562 C201.58845703 153.06826172 200.56558594 153.65800781 199.51171875 154.265625 C198.16533325 155.04147949 198.16533325 155.04147949 196.79174805 155.83300781 C195.0260795 156.86076225 193.27845695 157.91990082 191.54614258 159.00292969 C189.25 160.3125 189.25 160.3125 187.25 160.3125 C189.7583512 163.13034037 192.54922938 164.76973723 195.82421875 166.61328125 C196.95408203 167.25330078 198.08394531 167.89332031 199.24804688 168.55273438 C199.84866943 168.89006592 200.44929199 169.22739746 201.06811523 169.57495117 C204.26317062 171.36964011 207.44920137 173.18024975 210.63671875 174.98828125 C211.28365692 175.35462677 211.93059509 175.72097229 212.59713745 176.09841919 C218.51203271 179.45108974 224.38541026 182.87264466 230.25 186.3125 C240.17345233 192.1238311 250.14765622 197.84308551 260.13793945 203.53833008 C267.82025963 207.91861965 275.48676221 212.32480704 283.12817383 216.77612305 C288.13333977 219.68670699 293.17997287 222.51649115 298.25 225.3125 C298.23428955 224.41942139 298.2185791 223.52634277 298.20239258 222.60620117 C298.15124561 219.29071244 298.11364188 215.97564325 298.08520508 212.65991211 C298.07012411 211.22527448 298.0496562 209.79068292 298.02368164 208.35620117 C297.98726563 206.29334141 297.97026757 204.23109142 297.95703125 202.16796875 C297.9413208 200.92684326 297.92561035 199.68571777 297.90942383 198.40698242 C298.25 195.3125 298.25 195.3125 299.5534668 193.41137695 C302.46570024 191.52506774 304.89846295 191.90090773 308.25 192.3125 C310.49169922 193.82885742 310.49169922 193.82885742 312.25 196.3125 C312.35328925 199.18284385 312.24743485 201.6600487 311.9453125 204.48828125 C310.1327764 221.64327764 310.1327764 221.64327764 315.41259766 237.32519531 C321.36239702 242.29405055 328.39225891 245.02494247 335.56640625 247.79052734 C341.61619145 250.2901536 347.09043744 253.69348362 352.6875 257.0625 C354.82687662 258.30258756 356.96876108 259.53835997 359.11328125 260.76953125 C367.49726303 265.6084221 375.87458689 270.45879674 384.25 275.3125 C384.23032366 271.11642464 384.17785195 266.92229796 384.09741211 262.72705078 C384.07448571 261.30561403 384.05989711 259.88401352 384.05444336 258.46240234 C383.98880616 244.15349239 380.42024114 232.90352609 370.4296875 222.3984375 C365.11327402 217.32459802 359.1236303 213.54968538 352.83447266 209.81298828 C349.2176706 207.64747527 345.92660726 205.64474086 343.25 202.3125 C342.82786619 198.87512469 342.64143478 196.49159511 344.25 193.375 C347.49229663 191.65252991 350.71034786 191.75834324 354.25 192.3125 C357.31124012 193.65672803 359.95725377 195.45743057 362.6875 197.375 C363.43322266 197.88087646 364.17894531 198.38675293 364.94726562 198.90795898 C367.06360143 200.35543102 369.15917102 201.82851492 371.25 203.3125 C372.16910156 203.951875 373.08820313 204.59125 374.03515625 205.25 C387.85173893 215.3870342 396.48245382 229.43616283 399.25 246.3125 C399.73540647 251.83405848 399.76602046 257.36442942 399.75097656 262.90380859 C399.74999868 265.44091485 399.79187248 267.97504232 399.8359375 270.51171875 C399.91218062 280.35649133 399.5059782 288.15019251 392.84692383 295.95751953 C387.32727537 301.24097271 380.07183552 304.6208901 373.4375 308.3125 C371.59493087 309.34668649 369.75362288 310.38308177 367.91273499 311.42025757 C366.71553515 312.09411649 365.51733372 312.76619928 364.31809998 313.43643188 C359.91910497 315.9028243 355.62375054 318.50869342 351.37207031 321.22021484 C347.72978003 323.09499703 345.26502438 323.01689024 341.25 322.3125 C338.60485273 320.16331784 338.3246902 318.70254883 337.6875 315.375 C338.47077977 311.11047682 340.84225578 309.67494783 344.25 307.3125 C348.54476554 304.68663333 352.9227364 302.21249144 357.3125 299.75 C359.63976535 298.44141157 361.96315199 297.12655966 364.28515625 295.80859375 C365.3100415 295.23294678 366.33492676 294.6572998 367.39086914 294.06420898 C370.21194633 292.33581441 372.7159895 290.43469381 375.25 288.3125 C360.98143919 279.86662487 346.6188389 271.58627985 332.25 263.3125 C327.87449212 260.79254706 323.49943866 258.27180859 319.125 255.75 C318.04661865 255.12834961 316.9682373 254.50669922 315.85717773 253.86621094 C308.68241198 249.72627995 301.52496657 245.5575821 294.375 241.375 C285.69737759 236.29974877 276.98394432 231.28991233 268.25 226.3125 C258.530267 220.77329375 248.84350314 215.18103907 239.1875 209.53125 C231.89099835 205.26366747 224.57497805 201.03099969 217.25 196.8125 C204.88905731 189.69282107 192.56364538 182.51364876 180.25 175.3125 C180.27094727 175.95799805 180.29189453 176.60349609 180.31347656 177.26855469 C180.39674205 180.19971068 180.44869206 183.13061777 180.5 186.0625 C180.53351563 187.07828125 180.56703125 188.0940625 180.6015625 189.140625 C180.70025857 196.64152644 180.70025857 196.64152644 178.45703125 199.984375 C175.21428449 201.93576243 172.9504001 201.85074001 169.25 201.3125 C167.12727705 199.17786366 166.32192509 197.83489785 165.90942383 194.83886719 C165.92513428 193.93813477 165.94084473 193.03740234 165.95703125 192.109375 C165.96669922 191.1296875 165.97636719 190.15 165.98632812 189.140625 C166.01146484 188.12484375 166.03660156 187.1090625 166.0625 186.0625 C166.07603516 185.03125 166.08957031 184 166.10351562 182.9375 C166.13882393 180.39530208 166.18813964 177.85416777 166.25 175.3125 C165.60901367 175.68310547 164.96802734 176.05371094 164.30761719 176.43554688 C151.49343349 183.84211785 138.66741751 191.22685173 125.8125 198.5625 C113.00373023 205.87338789 100.22589083 213.23485115 87.4921875 220.67578125 C77.12675538 226.73271048 66.74838981 232.76262639 56.31811523 238.70727539 C39.9359218 248.04680028 23.61982776 257.50044922 7.33813477 267.01391602 C-0.47006506 271.57329256 -8.29385483 276.10519251 -16.125 280.625 C-17.25550781 281.27791016 -18.38601562 281.93082031 -19.55078125 282.60351562 C-20.59363281 283.20486328 -21.63648438 283.80621094 -22.7109375 284.42578125 C-23.63696777 284.95985596 -24.56299805 285.49393066 -25.51708984 286.04418945 C-26.9090113 286.8348118 -28.31820979 287.59660489 -29.75 288.3125 C-23.5775673 292.16735891 -17.37535113 295.95807584 -11.09375 299.6328125 C-10.11035645 300.20878174 -9.12696289 300.78475098 -8.11376953 301.37817383 C-6.13788469 302.53300605 -4.1597256 303.68395676 -2.17919922 304.83081055 C-1.26154785 305.36746338 -0.34389648 305.90411621 0.6015625 306.45703125 C1.42479004 306.93503174 2.24801758 307.41303223 3.09619141 307.90551758 C5.13539031 309.23763085 6.70826157 310.43035794 8.25 312.3125 C8.66616519 315.57246064 8.5266188 317.65553035 7.25 320.6875 C4.78918067 322.6869157 2.9458329 322.90435207 -0.18603516 322.83447266 C-6.1162966 321.62718843 -11.30073475 317.90125601 -16.4375 314.8125 C-17.63906179 314.10781734 -18.84153169 313.40468074 -20.04492188 312.703125 C-23.03243088 310.95427064 -26.00295581 309.17897513 -28.96606445 307.38912964 C-30.17094461 306.66196789 -31.37736811 305.93735816 -32.58520508 305.21511841 C-34.36606501 304.15004364 -36.14256508 303.07804604 -37.91796875 302.00390625 C-38.95332764 301.37943604 -39.98868652 300.75496582 -41.05541992 300.11157227 C-47.03025603 296.12239339 -50.54357429 291.14908669 -52.75 284.3125 C-53.17849976 281.33908907 -53.21798656 278.40731327 -53.21875 275.40625 C-53.22636353 274.56388794 -53.23397705 273.72152588 -53.24182129 272.8536377 C-53.25258213 271.07530663 -53.2554918 269.29691258 -53.25097656 267.51855469 C-53.25001252 264.84718132 -53.29150389 262.17876598 -53.3359375 259.5078125 C-53.46800636 240.50988417 -48.0838449 226.01469393 -35.2890625 211.734375 C-29.5465012 206.256855 -22.82869526 201.84726294 -16.25 197.4375 C-15.54230469 196.93992187 -14.83460937 196.44234375 -14.10546875 195.9296875 C-9.05299755 192.56753116 -5.81655793 191.65968561 0.25 192.3125 C2.25 193.375 2.25 193.375 3.25 195.3125 C3.875 198.625 3.875 198.625 3.25 202.3125 C-0.94999561 207.12187881 -6.80680755 210.37375886 -12.1875 213.6875 C-24.75921574 221.70422674 -31.96662157 229.9623647 -36.75 244.3125 C-36.90179014 246.6680448 -36.99899289 249.02725123 -37.06640625 251.38671875 C-37.08718735 252.0705513 -37.10796844 252.75438385 -37.12937927 253.4589386 C-37.19466154 255.6391921 -37.25366017 257.81956405 -37.3125 260 C-37.35570553 261.47982986 -37.39932047 262.95964783 -37.44335938 264.43945312 C-37.55032083 268.06367622 -37.65164823 271.68803189 -37.75 275.3125 C-36.77281006 274.74873657 -36.77281006 274.74873657 -35.77587891 274.17358398 C-33.79272596 273.02945729 -31.80957152 271.8853332 -29.82641602 270.74121094 C-27.49616432 269.39682862 -25.16592188 268.05243029 -22.83569336 266.70800781 C-5.5130524 256.71382254 -5.5130524 256.71382254 -1.58129883 254.45703125 C0.60011524 253.19272674 2.77098066 251.91004646 4.9309082 250.609375 C9.89513825 247.64551932 14.5672544 245.07191046 20.0703125 243.26171875 C27.92126417 240.44435839 27.92126417 240.44435839 33.25 234.3125 C35.81658109 224.10525214 34.96814667 212.68497229 34.24229431 202.27822876 C34.05677569 198.96730413 33.99877998 196.76915778 35.61914062 193.82373047 C37.61898552 191.97058078 38.55355975 191.79839658 41.25 191.875 C42.2709375 191.87693359 42.2709375 191.87693359 43.3125 191.87890625 C45.91740555 192.4618589 46.66357394 193.15365216 48.25 195.3125 C48.59057617 198.40698242 48.59057617 198.40698242 48.54296875 202.16796875 C48.53872391 202.82960526 48.53447906 203.49124176 48.53010559 204.17292786 C48.51333693 206.2823691 48.47569099 208.39084846 48.4375 210.5 C48.42245068 211.93162681 48.4087627 213.36326862 48.39648438 214.79492188 C48.3634403 218.30109288 48.31167167 221.80670254 48.25 225.3125 C62.64763 217.31667334 76.95850563 209.19727575 91.16796875 200.87109375 C109.15054478 190.33499579 127.2545262 180.00675589 145.35546875 169.67578125 C146.38333496 169.08748535 147.41120117 168.49918945 148.47021484 167.89306641 C150.16215077 166.93104347 151.85916349 165.97778773 153.56494141 165.04052734 C157.00613954 163.30068817 157.00613954 163.30068817 159.25 160.3125 C158.48171875 160.11011719 157.7134375 159.90773438 156.921875 159.69921875 C151.76040836 157.74994146 147.22907448 154.94642302 142.5 152.125 C140.33632451 150.84830222 138.17224834 149.57228329 136.0078125 148.296875 C134.89180664 147.63751953 133.77580078 146.97816406 132.62597656 146.29882812 C127.2287367 143.12324644 121.80236 139.9987344 116.375 136.875 C114.19008624 135.61591652 112.00519051 134.35680177 109.8203125 133.09765625 C108.73524414 132.47262207 107.65017578 131.84758789 106.53222656 131.20361328 C100.03663684 127.46106359 93.54393958 123.71349757 87.05102539 119.96630859 C81.96374968 117.03067241 76.87573896 114.09633388 71.7850647 111.16659546 C69.37456252 109.77921905 66.96448624 108.39110376 64.55444336 107.00292969 C62.84856032 106.02076185 61.14206014 105.03966615 59.43554688 104.05859375 C58.40623047 103.465625 57.37691406 102.87265625 56.31640625 102.26171875 C55.40834229 101.73924561 54.50027832 101.21677246 53.56469727 100.6784668 C51.75873799 99.61272034 49.99478871 98.47569248 48.25 97.3125 C48.27618408 98.2003418 48.30236816 99.08818359 48.3293457 100.00292969 C48.4146975 103.30550405 48.47730652 106.60690275 48.5246582 109.91015625 C48.54976347 111.33807901 48.58385587 112.76587375 48.62719727 114.19335938 C48.68803678 116.24901918 48.71624551 118.30297753 48.73828125 120.359375 C48.76446533 121.59526367 48.79064941 122.83115234 48.81762695 124.10449219 C48.25 127.3125 48.25 127.3125 45.87963867 129.71582031 C42.92107261 131.51222009 41.63385591 132.00662429 38.25 131.3125 C35.86557939 129.66124222 34.44600466 128.36539773 33.90197754 125.44299316 C33.786289 123.08222814 33.80077259 120.75353142 33.859375 118.390625 C33.86503479 117.53063904 33.87069458 116.67065308 33.87652588 115.78460693 C33.89888049 113.04333351 33.94907398 110.30337696 34 107.5625 C34.02006624 105.70184182 34.03831679 103.84116311 34.0546875 101.98046875 C34.09874216 97.42397334 34.16776246 92.86845978 34.25 88.3125 C33.53553711 88.04244141 32.82107422 87.77238281 32.08496094 87.49414062 C29.22136586 86.300565 26.59531107 84.92423477 23.890625 83.40625 C22.86638428 82.83261719 21.84214355 82.25898438 20.78686523 81.66796875 C19.70219971 81.05566406 18.61753418 80.44335938 17.5 79.8125 C16.374729 79.17957031 15.24945801 78.54664063 14.09008789 77.89453125 C6.5955564 73.66736898 -0.85123441 69.36870516 -8.25 64.9765625 C-14.0845188 61.51333556 -19.95036238 58.1036861 -25.8125 54.6875 C-26.89152588 54.0584375 -27.97055176 53.429375 -29.08227539 52.78125 C-31.63801835 51.29138284 -34.19392412 49.80179589 -36.75 48.3125 C-36.82493036 52.27766109 -36.87896449 56.24254014 -36.91479492 60.20825195 C-36.93705458 62.20994576 -36.97520146 64.21144275 -37.01367188 66.21289062 C-37.06865821 73.48941582 -36.79018358 79.64439476 -33.75 86.3125 C-33.36199219 87.17101562 -32.97398438 88.02953125 -32.57421875 88.9140625 C-26.68839549 99.39123242 -19.56614393 104.72868172 -9.59472656 111.11669922 C-6.98031262 112.81143182 -4.42518008 114.58546441 -1.875 116.375 C-0.70324219 117.19677734 -0.70324219 117.19677734 0.4921875 118.03515625 C2.25 119.3125 2.25 119.3125 3.25 120.3125 C3.61395977 124.17047355 3.81007535 126.47238698 1.625 129.75 C-1.44926472 131.77254258 -3.1104585 131.63147357 -6.75 131.3125 C-9.36791992 130.11010742 -9.36791992 130.11010742 -11.98046875 128.41796875 C-12.943479 127.79752686 -13.90648926 127.17708496 -14.89868164 126.5378418 C-16.40289673 125.52911011 -16.40289673 125.52911011 -17.9375 124.5 C-19.48135376 123.47483276 -19.48135376 123.47483276 -21.05639648 122.42895508 C-36.42274849 112.01359023 -47.39819416 99.55353156 -51.8359375 81.1640625 C-53.22385426 73.90439711 -53.12205419 66.55474033 -53.12060547 59.18945312 C-53.12500348 56.68551806 -53.16149285 54.1833151 -53.19921875 51.6796875 C-53.20508441 50.0651101 -53.20905548 48.45052446 -53.2109375 46.8359375 C-53.22530853 46.09926849 -53.23967957 45.36259949 -53.25448608 44.60360718 C-53.18874391 37.04045969 -49.94210981 30.77087185 -44.75 25.3125 C-41.9921875 23.3828125 -41.9921875 23.3828125 -38.625 21.4375 C-38.0047998 21.07527344 -37.38459961 20.71304688 -36.74560547 20.33984375 C-34.42004153 18.98623083 -32.08506147 17.64966456 -29.75 16.3125 C-26.91250962 14.67746698 -24.0756364 13.04137332 -21.23916626 11.40457153 C-18.2697006 9.69152953 -15.29865811 7.98137367 -12.32373047 6.27783203 C-11.22947754 5.64989746 -10.13522461 5.02196289 -9.0078125 4.375 C-7.52498779 3.52615234 -7.52498779 3.52615234 -6.01220703 2.66015625 C-1.9114144 0.21720618 -1.9114144 0.21720618 0 0 Z " fill="#333333" transform="translate(141.75,158.6875)"/>
<path d="M0 0 C1.98798072 1.61187626 3.37073685 3.05875029 5 5 C18.89604905 20.82011738 33.6926742 30.03779085 53 38 C61.433274 41.51167047 61.433274 41.51167047 63 44 C63.359375 46.80859375 63.359375 46.80859375 63 50 C60.98828125 52.421875 60.98828125 52.421875 58.3125 54.75 C47.90520368 64.61341219 45.13979245 76.74439168 44.68652344 90.75244141 C44.64629262 92.50822929 44.63031613 94.26478362 44.64160156 96.02099609 C44.57309231 100.25603785 44.33096704 103.17089283 41.6875 106.58984375 C39 109 39 109 35.375 109.125 C31.56469559 107.85489853 30.83145762 107.4781391 29 104 C28.52351375 100.9534466 28.52545275 97.95371422 28.5625 94.875 C28.57079834 93.98989746 28.57909668 93.10479492 28.58764648 92.19287109 C28.98575024 76.29422218 33.15319611 62.27020584 42 49 C40.73542969 48.86078125 40.73542969 48.86078125 39.4453125 48.71875 C35.533946 47.90277331 32.34658538 46.39877792 28.875 44.5 C28.2262793 44.15050293 27.57755859 43.80100586 26.90917969 43.44091797 C20.46341971 39.87098287 14.77923656 35.55162095 9 31 C8.01 30.34 7.02 29.68 6 29 C6 28.34 6 27.68 6 27 C5.34 27 4.68 27 4 27 C3.80591089 38.05765583 3.68793719 49.11329877 3.66578102 60.17271328 C3.65312768 65.3090353 3.61476389 70.44242486 3.51660156 75.57788086 C3.42273267 80.53910607 3.39776247 85.49643441 3.41953659 90.45845222 C3.41591058 92.34637043 3.38790408 94.23441156 3.33458328 96.12158012 C2.73444929 105.9351205 2.73444929 105.9351205 6.35640717 114.66572952 C10.15240123 117.98478778 14.40324952 120.00519671 19 122 C20.04781647 122.51191391 21.09563293 123.02382782 22.17520142 123.55125427 C43.46708829 133.7337575 67.85604976 133.46826089 89.92163086 126.15063477 C96.62450077 123.77942452 102.70304939 120.66877409 108.75 116.9375 C109.41765381 116.5262085 110.08530762 116.11491699 110.77319336 115.69116211 C116.10849271 112.24520497 120.28043908 108.30505672 122 102 C122.82594446 95.48004452 121.79469195 90.41049626 118 85 C113.12578398 80.36355062 109.02834968 79.61492581 102.5 79.73828125 C98.58666906 80.14795808 96.81333249 81.25209385 94 84 C90.69284372 88.92478707 88.82511303 93.4350971 88.5 99.375 C88.29321065 103.02827844 88.24414481 103.71516439 85.75 106.625 C82.7393336 108.1303332 81.29666279 108.67623852 78 108 C75.04467526 105.75221157 74.09624336 104.56826045 73.46875 100.86328125 C73.53530661 93.30078606 74.09906481 87.53780427 78 81 C78.556875 79.989375 79.11375 78.97875 79.6875 77.9375 C84.49743594 71.82758137 90.35235683 66.03937151 98 64 C106.50228756 63.11737094 113.44865761 63.95034205 121 68 C121.63550781 68.33902344 122.27101563 68.67804688 122.92578125 69.02734375 C129.22766757 72.9537962 133.72858028 79.4011641 136.17578125 86.328125 C138.10320637 94.91475825 138.45906946 104.93769608 134.36328125 112.91015625 C133.91339844 113.59980469 133.46351563 114.28945312 133 115 C132.48493896 115.80522095 132.48493896 115.80522095 131.95947266 116.62670898 C129.11258939 120.87526697 125.96926554 124.02118934 121.75 126.9375 C121.15300293 127.35717041 120.55600586 127.77684082 119.94091797 128.20922852 C110.42228422 134.66943604 99.76061921 139.06406881 89 143 C88.40324151 151.58006095 88.51845145 158.07672909 94 165 C97.04989731 167.89740244 100.39707428 169.85771984 104 172 C106 174 106 174 106.4375 176.8125 C106 180 106 180 103.875 182.9375 C101 185 101 185 98.3125 185.1875 C88.26586345 181.58587558 81.87914665 175.90649254 76.68359375 166.65625 C73.5164883 159.85856025 73.58302033 153.38980641 74 146 C73.21753906 146.16242188 72.43507813 146.32484375 71.62890625 146.4921875 C67.04094869 147.13420524 62.5634182 147.14530396 57.9375 147.125 C56.61008789 147.13080078 56.61008789 147.13080078 55.25585938 147.13671875 C54.39669922 147.13542969 53.53753906 147.13414062 52.65234375 147.1328125 C51.87882568 147.13168457 51.10530762 147.13055664 50.30834961 147.12939453 C47.79773318 146.98866193 45.45185095 146.54569873 43 146 C43.02094727 146.85754883 43.04189453 147.71509766 43.06347656 148.59863281 C43.13176527 151.78918472 43.18185513 154.97936346 43.21972656 158.17041016 C43.23980642 159.5497668 43.26707666 160.92903869 43.30175781 162.30810547 C43.35042817 164.29356979 43.37086418 166.27966254 43.390625 168.265625 C43.41157227 169.45961914 43.43251953 170.65361328 43.45410156 171.88378906 C43 175 43 175 41.16308594 177.38964844 C39 179 39 179 36 179.5 C32.22866148 178.87144358 31.29467194 178.03090442 29 175 C28.58198231 172.3326134 28.39530042 170.05891019 28.390625 167.390625 C28.37408875 166.66381531 28.35755249 165.93700562 28.34051514 165.18817139 C28.29207639 162.87536131 28.27067511 160.56320843 28.25 158.25 C28.22183659 156.67835243 28.19190863 155.10673541 28.16015625 153.53515625 C28.08631953 149.69015831 28.03672052 145.84552428 28 142 C27.0836377 141.69489502 26.16727539 141.38979004 25.22314453 141.07543945 C18.32592794 138.7091385 11.967375 136.25585264 5.875 132.1875 C0.90521657 128.84154142 0.90521657 128.84154142 -5 128 C-7.81822808 129.55784063 -7.81822808 129.55784063 -10.8125 131.625 C-15.74805296 134.82705902 -20.71109028 137.34871921 -26.1875 139.5 C-26.83501221 139.75475098 -27.48252441 140.00950195 -28.1496582 140.27197266 C-32.69011968 142 -32.69011968 142 -35 142 C-34.9685791 143.46808105 -34.9685791 143.46808105 -34.93652344 144.96582031 C-34.86402037 148.60352904 -34.81816367 152.24117416 -34.78027344 155.87939453 C-34.7601812 157.45274604 -34.73290201 159.02602308 -34.69824219 160.59912109 C-34.64961506 162.86314272 -34.62700865 165.12617573 -34.609375 167.390625 C-34.58872986 168.09181458 -34.56808472 168.79300415 -34.54681396 169.51544189 C-34.5452708 172.88848349 -34.77916523 174.69992804 -36.80175781 177.44824219 C-39.9762189 179.6891212 -42.21215758 179.48208904 -46 179 C-47.6965332 177.90112305 -47.6965332 177.90112305 -49 176 C-49.34057617 172.90551758 -49.34057617 172.90551758 -49.29296875 169.14453125 C-49.28872391 168.48289474 -49.28447906 167.82125824 -49.28010559 167.13957214 C-49.26333693 165.0301309 -49.22569099 162.92165154 -49.1875 160.8125 C-49.17245068 159.38087319 -49.1587627 157.94923138 -49.14648438 156.51757812 C-49.1134403 153.01140712 -49.06167167 149.50579746 -49 146 C-50.11761719 146.16242188 -51.23523438 146.32484375 -52.38671875 146.4921875 C-57.20403958 147.09289329 -61.96336523 147.14771258 -66.8125 147.125 C-67.65748047 147.12886719 -68.50246094 147.13273438 -69.37304688 147.13671875 C-70.59024414 147.13478516 -70.59024414 147.13478516 -71.83203125 147.1328125 C-72.56139893 147.13168457 -73.2907666 147.13055664 -74.04223633 147.12939453 C-76 147 -76 147 -79 146 C-78.95359375 146.66644531 -78.9071875 147.33289063 -78.859375 148.01953125 C-78.44749987 158.53705678 -81.25294839 166.86326787 -87.9921875 174.98828125 C-92.41418004 179.41887689 -98.04240641 183.72614874 -104.375 184.3125 C-108 184 -108 184 -110.4375 182.375 C-112.48491197 179.2629338 -112.68551032 177.65605504 -112 174 C-109.53642129 171.53642129 -106.87843514 169.92309162 -103.9375 168.0625 C-98.98356933 164.58420825 -96.29270431 160.92489475 -95 155 C-94.84611201 150.99378278 -94.88329735 147.00679107 -95 143 C-95.95519531 142.63648438 -96.91039062 142.27296875 -97.89453125 141.8984375 C-113.35089741 135.92866698 -132.68421796 128.0638944 -140.3125 112.28515625 C-143.69448348 103.34873463 -144.67464816 93.97684413 -141.5625 84.8125 C-137.30029385 75.67920111 -130.33250513 69.09897176 -121.1796875 65 C-112.9966201 62.42645546 -104.95144541 63.14277301 -97.2109375 66.75 C-88.00428726 71.95517328 -82.44131024 80.63012664 -79.4765625 90.703125 C-78.27717239 96.48379206 -77.78136597 101.1166565 -81.0625 106.1875 C-84 108 -84 108 -87.625 108.0625 C-91.40808449 106.87152896 -92.07496057 106.33935411 -94 103 C-94.51953125 100.046875 -94.51953125 100.046875 -94.8125 96.75 C-95.64402956 90.53798504 -97.32254923 86.26341805 -102 82 C-106.41535919 79.23583918 -110.94668795 79.3523445 -116 80 C-120.98669007 82.49334503 -124.49675474 85.99350949 -127 91 C-127.53160319 97.73704807 -127.8515002 104.2227497 -124 110 C-105.56469209 126.74146551 -80.84792422 132.01452937 -56.72607422 131.17041016 C-41.98471609 130.24891025 -27.07215214 124.99053127 -15.13671875 116.24609375 C-12 114 -12 114 -10 114 C-10 85.29 -10 56.58 -10 27 C-10.66 27 -11.32 27 -12 27 C-12 27.66 -12 28.32 -12 29 C-14.1265949 30.81493875 -16.24572063 32.480617 -18.5 34.125 C-19.16692871 34.61274902 -19.83385742 35.10049805 -20.52099609 35.60302734 C-28.49017801 41.27037242 -38.16393642 47.60561551 -48 49 C-47.20335937 50.27230469 -47.20335937 50.27230469 -46.390625 51.5703125 C-39.64977677 62.63989735 -35.46737911 73.91338493 -35 87 C-34.96358398 87.66 -34.92716797 88.32 -34.88964844 89 C-34.77071852 91.27066191 -34.69339563 93.53979015 -34.625 95.8125 C-34.58665039 96.54251221 -34.54830078 97.27252441 -34.50878906 98.0246582 C-34.44749852 102.05636874 -34.82479711 103.7799845 -37.3671875 106.97265625 C-40 109 -40 109 -42.5 109.625 C-46.30961214 108.67259697 -47.61749702 107.12068834 -50 104 C-50.69191716 100.48162384 -50.6451085 97.01411157 -50.625 93.4375 C-50.91389027 79.86629864 -52.50347088 66.76601219 -62.390625 56.5234375 C-63.97392796 55.0347344 -65.58885141 53.57848815 -67.2421875 52.16796875 C-69 50 -69 50 -69.6328125 47.05078125 C-68.90358739 43.53519599 -67.66440284 42.17993266 -64.79199219 40.07226562 C-61.89507531 38.3388516 -58.81824602 37.27908424 -55.625 36.25 C-36.42036962 29.52277708 -19.65603082 17.79839736 -8 1 C-5.11138291 -0.44430855 -3.20352299 -0.37688506 0 0 Z " fill="#333333" transform="translate(318,51)"/>
<path d="M0 0 C8.6261372 2.7318344 14.39917852 8.98115879 18.50390625 16.79296875 C21.26752136 22.12156413 22.72404337 26.56597583 22.60546875 32.61328125 C22.59080566 33.58797363 22.57614258 34.56266602 22.56103516 35.56689453 C22.54218262 36.30149902 22.52333008 37.03610352 22.50390625 37.79296875 C23.30610596 37.78773193 24.10830566 37.78249512 24.93481445 37.77709961 C28.56200378 37.75633978 32.18918062 37.74331173 35.81640625 37.73046875 C37.07904297 37.72208984 38.34167969 37.71371094 39.64257812 37.70507812 C40.85107422 37.70185547 42.05957031 37.69863281 43.3046875 37.6953125 C44.97785034 37.68745728 44.97785034 37.68745728 46.68481445 37.67944336 C49.50390625 37.79296875 49.50390625 37.79296875 52.50390625 38.79296875 C52.47248535 37.46120605 52.47248535 37.46120605 52.44042969 36.10253906 C52.37214948 32.8000242 52.32205755 29.49826205 52.28417969 26.1953125 C52.26409643 24.76745754 52.23682373 23.3396845 52.20214844 21.91210938 C52.15347956 19.85656507 52.13090658 17.8021102 52.11328125 15.74609375 C52.08186035 13.89226074 52.08186035 13.89226074 52.04980469 12.00097656 C52.50390625 8.79296875 52.50390625 8.79296875 54.34082031 6.38964844 C56.50390625 4.79296875 56.50390625 4.79296875 59.50390625 4.29296875 C63.27524477 4.92152517 64.20923431 5.76206433 66.50390625 8.79296875 C66.92192394 11.46035535 67.10860583 13.73405856 67.11328125 16.40234375 C67.1298175 17.12915344 67.14635376 17.85596313 67.16339111 18.60479736 C67.21182986 20.91760744 67.23323114 23.22976032 67.25390625 25.54296875 C67.28206966 27.11461632 67.31199762 28.68623334 67.34375 30.2578125 C67.41758672 34.10281044 67.46718573 37.94744447 67.50390625 41.79296875 C68.77886963 42.26150269 68.77886963 42.26150269 70.07958984 42.73950195 C76.3998601 45.10747745 82.32719925 47.53278769 88.12890625 50.98046875 C88.71285156 51.32271484 89.29679688 51.66496094 89.8984375 52.01757812 C92.48519542 53.54181191 95.00521935 55.12717748 97.50390625 56.79296875 C102.36994973 56.4074364 106.40497155 52.71269886 110.3359375 50.09375 C116.2890095 46.50095565 123.03316805 44.27328799 129.50390625 41.79296875 C129.5179248 40.3248877 129.5179248 40.3248877 129.53222656 38.82714844 C129.57216083 35.18883084 129.63792759 31.55135584 129.71142578 27.91357422 C129.73961579 26.34044231 129.76084023 24.76716928 129.77490234 23.19384766 C129.79636067 20.92927919 129.84301973 18.66640371 129.89453125 16.40234375 C129.89575989 15.70115417 129.89698853 14.9999646 129.89825439 14.27752686 C129.99900826 10.90324996 130.29381146 9.07047126 132.35449219 6.34863281 C134.50390625 4.79296875 134.50390625 4.79296875 137.50390625 4.29296875 C141.25533927 4.91820759 142.21094837 5.79298505 144.50390625 8.79296875 C144.95800781 12.00097656 144.95800781 12.00097656 144.89453125 15.74609375 C144.88887146 16.40631531 144.88321167 17.06653687 144.87738037 17.74676514 C144.85506855 19.84625138 144.80488939 21.94400245 144.75390625 24.04296875 C144.73383419 25.47002735 144.71558464 26.89711283 144.69921875 28.32421875 C144.65522318 31.81436168 144.58623501 35.30349574 144.50390625 38.79296875 C145.55223633 38.63070801 146.60056641 38.46844727 147.68066406 38.30126953 C150.74401634 37.89399626 153.59645455 37.66437121 156.67578125 37.66015625 C158.04283203 37.65822266 158.04283203 37.65822266 159.4375 37.65625 C160.83162109 37.66205078 160.83162109 37.66205078 162.25390625 37.66796875 C163.19878906 37.66410156 164.14367187 37.66023438 165.1171875 37.65625 C166.02339844 37.65753906 166.92960938 37.65882813 167.86328125 37.66015625 C168.68280273 37.66128418 169.50232422 37.66241211 170.34667969 37.66357422 C172.50390625 37.79296875 172.50390625 37.79296875 175.50390625 38.79296875 C175.4575 37.89835937 175.41109375 37.00375 175.36328125 36.08203125 C175.03199959 24.98409557 176.49743893 17.99021195 183.75390625 9.48046875 C188.69784334 4.33391129 193.06249978 0.30917972 200.25390625 -0.76953125 C203.50390625 -0.20703125 203.50390625 -0.20703125 205.94140625 1.41796875 C207.96322938 4.4911399 208.03146142 6.17544756 207.50390625 9.79296875 C205.96146595 12.79215823 204.76441134 13.67139971 201.69140625 15.10546875 C196.04749075 18.09342401 192.45356439 22.72443824 190.50390625 28.79296875 C190.22269383 31.05593282 190.01685736 33.32927537 189.87890625 35.60546875 C189.80414063 36.76691406 189.729375 37.92835938 189.65234375 39.125 C189.57886719 40.44564453 189.57886719 40.44564453 189.50390625 41.79296875 C190.11234375 41.91671875 190.72078125 42.04046875 191.34765625 42.16796875 C207.00544623 45.85215463 225.39755624 55.10329026 234.50390625 68.79296875 C234.91382813 69.39882813 235.32375 70.0046875 235.74609375 70.62890625 C240.18166698 78.61293806 239.6952288 89.06717473 237.87890625 97.796875 C234.62242582 107.08656694 227.49308185 114.38385347 218.76953125 118.7578125 C211.17493615 121.16519013 201.21309388 121.54198099 193.87890625 118.16796875 C192.1328125 117.05078125 192.1328125 117.05078125 190.50390625 115.79296875 C189.89417969 115.35726562 189.28445313 114.9215625 188.65625 114.47265625 C181.70407227 109.07032706 177.19393474 101.42652513 175.50390625 92.79296875 C174.51793987 81.19098078 174.51793987 81.19098078 176.8125 77.9375 C179.70444957 75.98059186 182.13709795 76.37950106 185.50390625 76.79296875 C189.59174456 79.86072264 190.19894703 82.74288934 191.00390625 87.66796875 C192.39777573 94.85347774 193.66814437 98.28694662 199.19140625 103.16796875 C203.50627052 105.28469462 206.79113171 105.8375939 211.50390625 104.79296875 C216.39938512 102.34954632 220.42641751 98.70495729 222.8828125 93.78125 C224.55875555 88.41612415 224.19455186 83.40447517 222.00390625 78.29296875 C221.50890625 77.46796875 221.01390625 76.64296875 220.50390625 75.79296875 C220.50390625 75.13296875 220.50390625 74.47296875 220.50390625 73.79296875 C219.97152344 73.54933594 219.43914062 73.30570312 218.890625 73.0546875 C216.48324159 71.78204455 214.28337592 70.31030376 212.03955078 68.77197266 C192.03526801 55.22982714 168.58098969 49.41408674 144.64599609 53.87402344 C131.77623865 56.60707983 119.78566895 61.44008396 109.32421875 69.5078125 C107.50390625 70.79296875 107.50390625 70.79296875 105.50390625 70.79296875 C105.50390625 99.17296875 105.50390625 127.55296875 105.50390625 156.79296875 C110.78390625 152.83296875 116.06390625 148.87296875 121.50390625 144.79296875 C124.96127313 142.72384174 128.23805544 140.81846312 131.81640625 139.04296875 C132.62529297 138.62015625 133.43417969 138.19734375 134.26757812 137.76171875 C140.06531554 134.79296875 140.06531554 134.79296875 143.50390625 134.79296875 C143.1171875 134.19871094 142.73046875 133.60445312 142.33203125 132.9921875 C133.77225533 119.36858375 130.31677948 104.59271572 130.06640625 88.60546875 C130.04416992 87.79142578 130.02193359 86.97738281 129.99902344 86.13867188 C130.01339352 82.33538952 130.05061111 80.41144771 132.34765625 77.27734375 C135.34015139 75.21729275 136.94267926 75.13886583 140.50390625 75.79296875 C143.25874497 77.81345429 145.20449133 79.41028476 145.94995117 82.8527832 C146.11601339 85.32077532 146.14471849 87.7570151 146.12890625 90.23046875 C146.45942333 104.67485192 148.3852592 117.72569854 158.50390625 128.79296875 C159.83421875 129.72109375 159.83421875 129.72109375 161.19140625 130.66796875 C163.50390625 132.79296875 163.50390625 132.79296875 164.62890625 136.23046875 C164.50390625 139.79296875 164.50390625 139.79296875 162.38671875 142.375 C159.30486597 144.95991446 157.08164125 145.90009053 153.25390625 147.04296875 C134.63919462 153.29985088 115.3959749 164.56963747 104.7578125 181.5859375 C102.50390625 183.79296875 102.50390625 183.79296875 98.640625 184.53515625 C95.19263706 184.30396168 93.6461708 183.40371838 91.3359375 180.86328125 C90.31049191 179.56288764 89.304822 178.24672625 88.31640625 176.91796875 C75.88941883 161.5271774 59.31695228 151.89843166 40.5925293 145.81933594 C36.75145975 144.52164384 34.40400986 143.46696983 32.50390625 139.79296875 C32.44140625 136.35546875 32.44140625 136.35546875 33.50390625 132.79296875 C34.90618067 131.5537495 36.3201975 130.32191581 37.8203125 129.203125 C46.49302198 121.93897622 49.0908932 109.51053945 50.50390625 98.79296875 C50.69733113 94.97787625 50.79893241 91.15749924 50.84570312 87.33789062 C50.98795502 83.39122749 51.24585493 81.2206598 53.328125 77.76953125 C55.50390625 75.79296875 55.50390625 75.79296875 59.00390625 75.23046875 C62.50390625 75.79296875 62.50390625 75.79296875 64.6953125 77.2421875 C67.41867205 81.08312441 67.05990849 84.57119428 66.94140625 89.16796875 C66.92746826 90.06265869 66.91353027 90.95734863 66.89916992 91.87915039 C66.47557417 107.26519676 62.26078159 122.0329504 53.50390625 134.79296875 C54.65890625 135.10234375 55.81390625 135.41171875 57.00390625 135.73046875 C61.69712614 137.30963393 65.93323816 139.46901697 70.25390625 141.85546875 C70.87201172 142.18861084 71.49011719 142.52175293 72.12695312 142.86499023 C76.82116468 145.52007918 81.03445928 148.6671763 85.28222656 151.97045898 C85.88217438 152.43459953 86.48212219 152.89874008 87.10025024 153.3769455 C88.56943593 154.51394163 90.03685132 155.65322465 91.50390625 156.79296875 C91.62819989 145.70064227 91.69309148 134.6096969 91.68268871 123.51663113 C91.67971292 118.36512104 91.69699691 113.21535703 91.76098633 108.06420898 C91.82202193 103.09030354 91.82930944 98.11892511 91.79973793 93.14476204 C91.79783811 91.249738 91.81512679 89.35459214 91.8521328 87.45992851 C92.42491468 77.06665471 92.42491468 77.06665471 88.15957642 68.12771606 C85.32050107 66.27989578 82.66110158 65.00297402 79.50390625 63.79296875 C77.68789685 62.90427113 75.87485692 62.00944872 74.06640625 61.10546875 C54.81373249 52.77998821 33.84199426 49.1676825 13.50390625 55.79296875 C12.694375 55.99792969 11.88484375 56.20289063 11.05078125 56.4140625 C-1.9405062 59.7876065 -14.80027978 66.94143818 -24.18359375 76.54296875 C-26.49524865 82.2670666 -26.43581269 88.21616354 -24.87109375 94.171875 C-22.9180302 98.76680577 -20.07828912 101.56337497 -15.703125 103.93359375 C-11.80826516 105.45017634 -8.56060879 105.90469151 -4.49609375 104.79296875 C1.16612402 101.42917736 4.6712878 97.15323277 6.50390625 90.79296875 C6.67498751 89.0661173 6.8195747 87.33649209 6.94140625 85.60546875 C7.2022878 82.37152203 7.38801663 80.98017506 9.12890625 78.16796875 C12.48820673 76.22311058 14.68875849 76.24794764 18.50390625 76.79296875 C20.94140625 78.16796875 20.94140625 78.16796875 22.50390625 80.79296875 C24.03643294 89.16656817 21.35608129 97.89413209 17.1484375 105.12109375 C12.2599533 111.98856217 6.03669077 118.16130776 -2.49609375 119.79296875 C-12.06037943 120.7558163 -19.42913662 120.19186613 -27.49609375 114.79296875 C-28.40359375 114.21546875 -29.31109375 113.63796875 -30.24609375 113.04296875 C-38.0021882 105.2868743 -41.57196021 96.65364049 -41.93359375 85.79296875 C-41.779619 79.56703314 -40.75299155 75.08027436 -37.49609375 69.79296875 C-37.13 69.14199219 -36.76390625 68.49101562 -36.38671875 67.8203125 C-28.43478198 55.4751761 -11.8100411 47.76033911 1.50390625 42.79296875 C5.06640625 42.046875 5.06640625 42.046875 7.50390625 41.79296875 C7.08669705 29.53431786 7.08669705 29.53431786 1.25390625 19.10546875 C-0.9172499 17.27972381 -2.73877408 16.01490682 -5.18359375 14.66796875 C-8.49609375 12.79296875 -8.49609375 12.79296875 -10.49609375 9.79296875 C-10.94607964 6.26807928 -10.87547786 4.43627224 -9.05859375 1.35546875 C-5.74022729 -0.66792543 -3.78175082 -0.62925343 0 0 Z " fill="#333333" transform="translate(216.49609375,405.20703125)"/>
<path d="M0 0 C2.90366374 1.66595509 5.41980258 3.75131038 8 5.875 C9.50238301 7.0696265 11.00631382 8.26230882 12.51171875 9.453125 C13.26114746 10.05060547 14.01057617 10.64808594 14.78271484 11.26367188 C18.05185754 13.82369642 21.41841482 16.23437556 24.8125 18.625 C30.96046961 22.96381964 30.96046961 22.96381964 33.07421875 24.8984375 C34.96993141 26.26132403 34.96993141 26.26132403 37.2578125 25.55859375 C41.07359803 23.38979258 44.43261976 20.77601589 47.875 18.0625 C49.38873072 16.89246262 50.90306604 15.72320705 52.41796875 14.5546875 C54.66780452 12.81131444 56.91580345 11.06578034 59.15869141 9.31347656 C61.15812392 7.75768427 63.17092141 6.22096652 65.1875 4.6875 C65.7861084 4.2138501 66.3847168 3.7402002 67.00146484 3.25219727 C69.82187199 1.12673653 71.74018907 0.03096674 75.27734375 -0.390625 C78 0 78 0 80.375 1.5625 C82 4 82 4 82.75 7.3125 C81.17353417 15.06345698 71.63128889 19.86909387 65.4375 24.25 C63.86288407 25.37444401 62.28867249 26.49945445 60.71484375 27.625 C59.93093262 28.18445313 59.14702148 28.74390625 58.33935547 29.3203125 C54.06092815 32.39227868 49.82740045 35.52555767 45.59545898 38.66113281 C40.68742535 42.28110689 38.24094329 43.75778482 32 43 C28.62216515 41.11781194 25.69307394 38.73440746 22.6875 36.3125 C20.92189852 34.93579825 19.15494087 33.56083421 17.38671875 32.1875 C16.4951709 31.48882812 15.60362305 30.79015625 14.68505859 30.0703125 C9.80620704 26.30847751 4.76839569 22.76790906 -0.26293945 19.21411133 C-7.45844037 14.07969598 -7.45844037 14.07969598 -10 11 C-10.56783945 7.02512383 -10.62340519 4.93510779 -8.375 1.5625 C-5.18828421 -0.53402355 -3.79077711 -0.52576046 0 0 Z " fill="#333333" transform="translate(279,368)"/>
<path d="M0 0 C3.17578125 1.6953125 3.17578125 1.6953125 6.3125 4.125 C7.52078982 5.04042202 8.72912584 5.95578306 9.9375 6.87109375 C10.58332031 7.37108887 11.22914063 7.87108398 11.89453125 8.38623047 C14.99931201 10.76593836 18.1640732 13.06158966 21.32299805 15.36865234 C24.46038976 17.66085282 27.5924578 19.95931583 30.70483398 22.28540039 C32.31104494 23.48531737 33.9259146 24.67369095 35.54711914 25.85327148 C36.3643042 26.46114502 37.18148926 27.06901855 38.0234375 27.6953125 C39.1379126 28.51346436 39.1379126 28.51346436 40.27490234 29.34814453 C42 31 42 31 42.8125 34.6875 C41.88586655 38.46531329 41.2458739 39.86455664 38 42 C33.54243521 42.57374596 31.06932244 41.81581934 27.45874023 39.15405273 C26.91548096 38.73196533 26.37222168 38.30987793 25.8125 37.875 C25.22734619 37.4406665 24.64219238 37.00633301 24.03930664 36.55883789 C22.01526266 35.05328368 20.00742991 33.5276296 18 32 C15.49710707 30.10642368 12.99081579 28.21783042 10.47729492 26.33837891 C8.80659975 25.08796723 7.14246387 23.82873491 5.4855957 22.56005859 C4.71562256 21.9820752 3.94564941 21.4040918 3.15234375 20.80859375 C2.47163818 20.29095459 1.79093262 19.77331543 1.08959961 19.23999023 C-1.32526142 17.80698647 -3.20754337 17.2577957 -6 17 C-8.85032948 18.63172939 -8.85032948 18.63172939 -11.6875 21.125 C-12.82181262 22.04723818 -13.95868521 22.96633372 -15.09765625 23.8828125 C-15.71398926 24.38200195 -16.33032227 24.88119141 -16.96533203 25.39550781 C-20.76017393 28.38803252 -24.69817997 31.18436551 -28.625 34 C-29.40705811 34.56348145 -30.18911621 35.12696289 -30.99487305 35.70751953 C-40.5457235 42.57627469 -40.5457235 42.57627469 -47 42 C-48.9375 41 -48.9375 41 -50 39 C-50.75508524 35.5730747 -51.0390136 34.21627245 -50 31 C-47.63193212 28.27259844 -44.7855031 26.32597528 -41.82421875 24.27978516 C-39.70536823 22.79330036 -37.63458668 21.25021595 -35.5625 19.69921875 C-31.49378564 16.6561543 -27.39535929 13.65674833 -23.28417969 10.67138672 C-21.22799246 9.16682732 -19.19355895 7.63788944 -17.1640625 6.09765625 C-16.0474617 5.27264284 -14.9303188 4.44836237 -13.8125 3.625 C-12.87019531 2.91601562 -11.92789063 2.20703125 -10.95703125 1.4765625 C-7.22523438 -0.38687108 -4.05147137 -0.77980636 0 0 Z " fill="#333333" transform="translate(319,230)"/>
<path d="M0 0 C0.92461029 -0.01268417 1.84922058 -0.02536835 2.80184937 -0.03843689 C3.79874786 -0.03550125 4.79564636 -0.03256561 5.82275391 -0.02954102 C6.84986481 -0.03478287 7.87697571 -0.04002472 8.93521118 -0.04542542 C11.10897925 -0.05185155 13.28278206 -0.050501 15.45654297 -0.04199219 C18.77976662 -0.03349724 22.10126332 -0.06221227 25.42431641 -0.09399414 C27.53629506 -0.09560661 29.64827675 -0.09502774 31.76025391 -0.09204102 C33.24952896 -0.10889198 33.24952896 -0.10889198 34.76889038 -0.12608337 C39.13957211 -0.08203943 41.72876175 -0.00681862 45.55175781 2.25146484 C47.42431641 4.40405273 47.42431641 4.40405273 48.04931641 7.34155273 C47.18709259 11.56644945 45.8643638 12.80159854 42.42431641 15.40405273 C38.96758503 16.15365496 35.57617176 16.12880466 32.04931641 16.10327148 C30.54618896 16.11400444 30.54618896 16.11400444 29.01269531 16.12495422 C26.89795826 16.13272475 24.78314089 16.12773286 22.66845703 16.11083984 C19.43449535 16.09161325 16.20483045 16.13100815 12.97119141 16.17553711 C10.91389718 16.17582747 8.85659902 16.1726874 6.79931641 16.16577148 C5.83461426 16.18105392 4.86991211 16.19633636 3.87597656 16.21208191 C-2.61945239 16.09943459 -2.61945239 16.09943459 -5.32861328 14.12930298 C-7.71131961 11.44245353 -8.57568359 9.83107724 -8.57568359 6.21655273 C-6.88911919 1.47309034 -5.01385391 0.03331227 0 0 Z " fill="#363636" transform="translate(477.57568359375,312.595947265625)"/>
<path d="M0 0 C1.02569595 -0.00619858 2.05139191 -0.01239716 3.10816956 -0.01878357 C5.27596081 -0.02588304 7.44380657 -0.02270555 9.61157227 -0.01000977 C12.92631585 0.00384318 16.2382298 -0.03019937 19.55273438 -0.06835938 C21.66015694 -0.0693107 23.76758304 -0.06745104 25.875 -0.0625 C26.86471298 -0.07575821 27.85442596 -0.08901642 28.87413025 -0.10267639 C33.56978798 -0.03923775 35.80326391 0.04739791 39.66821289 2.91040039 C41.50390625 5.56640625 41.50390625 5.56640625 41.50390625 8.69140625 C40.47919023 11.63746479 39.91908515 12.69542339 37.50390625 14.56640625 C35.30310059 14.9540863 35.30310059 14.9540863 32.71289062 14.97045898 C31.74178345 14.98314316 30.77067627 14.99582733 29.7701416 15.00889587 C28.72322144 15.00596024 27.67630127 15.0030246 26.59765625 15 C25.52140991 15.00524185 24.44516357 15.0104837 23.33630371 15.0158844 C21.059986 15.02231019 18.7836351 15.02096045 16.50732422 15.01245117 C13.01730485 15.00393893 9.52892016 15.03270029 6.0390625 15.06445312 C3.82942758 15.06606508 1.61978974 15.06548772 -0.58984375 15.0625 C-1.63676392 15.07373398 -2.68368408 15.08496796 -3.7623291 15.09654236 C-4.73343628 15.08716141 -5.70454346 15.07778046 -6.70507812 15.06811523 C-7.55984741 15.06794907 -8.4146167 15.0677829 -9.29528809 15.06761169 C-11.49609375 14.56640625 -11.49609375 14.56640625 -13.26818848 12.72254944 C-14.95059344 9.76832645 -14.98430416 7.91413477 -14.49609375 4.56640625 C-11.02703083 -0.87774359 -5.8103548 -0.02905871 0 0 Z " fill="#313131" transform="translate(119.49609375,312.43359375)"/>
<path d="M0 0 C3.70390021 2.02666238 5.65363011 3.48044516 8 7 C8.68343706 10.77688904 8.85107095 14.47186889 6.94921875 17.88671875 C4.62594716 20.71713517 2.71847227 22.79405342 -0.98828125 23.23828125 C-5.05070018 23.36800555 -7.37166461 23.37432746 -10.9375 21.25 C-13.95236344 17.96105806 -14.83016289 16.12517087 -15.5 11.6875 C-14.83398123 6.77561156 -12.58855833 4.29106127 -9 1 C-5.89046621 -0.5547669 -3.43733239 -0.28644437 0 0 Z " fill="#343434" transform="translate(449,422)"/>
<path d="M0 0 C3.70390021 2.02666238 5.65363011 3.48044516 8 7 C8.6820176 10.76904461 8.83098707 14.45628171 6.984375 17.88671875 C4.84357352 20.5498242 3.25941392 21.91352869 0 23 C-7.11961722 23.68899522 -7.11961722 23.68899522 -10.875 20.75 C-13.46833775 17.39391585 -14.7582946 15.35959286 -15.5 11.1875 C-14.78762776 6.646127 -12.29145042 4.09532772 -9 1 C-5.89046621 -0.5547669 -3.43733239 -0.28644437 0 0 Z " fill="#353535" transform="translate(449,195)"/>
<path d="M0 0 C3.72943037 2.0475304 7.19368209 4.06860219 9 8 C9.30746941 12.95677955 8.7247721 16.1079728 5.5625 20 C1.7248719 22.99522193 -0.86339955 23.53470017 -5.66796875 23.46484375 C-9.25469327 22.74990201 -10.85439584 21.03491045 -12.96484375 18.13671875 C-14.77592369 14.39837637 -14.89129802 11.02594782 -14 7 C-10.56417713 1.2327259 -6.66321886 -0.79958626 0 0 Z " fill="#333333" transform="translate(187,422)"/>
<path d="M0 0 C2.83740268 1.9124094 4.56190113 3.89278236 6 7 C6.45231987 10.27233882 6.12670323 12.89866223 5 16 C2.80176185 18.70552388 1.10443333 20.44778333 -2 22 C-8.81283762 22.68128376 -8.81283762 22.68128376 -11.82421875 20.953125 C-14.67246044 18.60832555 -16.7898041 16.75392971 -17.23828125 13.01171875 C-17.36800555 8.94929982 -17.37432746 6.62833539 -15.25 3.0625 C-10.46546218 -1.32332634 -6.15453436 -1.96308423 0 0 Z " fill="#343434" transform="translate(190,196)"/>
<path d="M0 0 C0.33 0.66 0.66 1.32 1 2 C-0.8253125 2.0928125 -0.8253125 2.0928125 -2.6875 2.1875 C-7.18745495 2.71315845 -9.02623841 4.58892052 -12 8 C-12.66 8 -13.32 8 -14 8 C-11.33342809 1.2123624 -7.01275254 -0.55001981 0 0 Z " fill="#454545" transform="translate(449,422)"/>
<path d="M0 0 C0.33 0.66 0.66 1.32 1 2 C0.30132812 2.10957031 -0.39734375 2.21914063 -1.1171875 2.33203125 C-2.02726563 2.49058594 -2.93734375 2.64914062 -3.875 2.8125 C-4.77992188 2.96332031 -5.68484375 3.11414063 -6.6171875 3.26953125 C-9.34412478 3.83051301 -9.34412478 3.83051301 -11 7 C-11.66 7 -12.32 7 -13 7 C-10.66265451 0.83790735 -6.22059253 -0.43399483 0 0 Z " fill="#464646" transform="translate(187,422)"/>
<path d="M0 0 C0.33 0.66 0.66 1.32 1 2 C-1.64 4.31 -4.28 6.62 -7 9 C-7.33 8.01 -7.66 7.02 -8 6 C-5.36 4.02 -2.72 2.04 0 0 Z " fill="#3B3B3B" transform="translate(493,273)"/>
<path d="M0 0 C3.5 -0.3125 3.5 -0.3125 7 0 C7.66 0.66 8.32 1.32 9 2 C4.25 3.125 4.25 3.125 2 2 C-0.09821215 2.39938767 -0.09821215 2.39938767 -2 3 C-1.34 2.01 -0.68 1.02 0 0 Z " fill="#3C3C3C" transform="translate(395,482)"/>
</svg>
